<svg xmlns="http://www.w3.org/2000/svg" width="470" height="422.444" viewBox="0 0 470 422.444"><linearGradient id="a" gradientUnits="userSpaceOnUse" x1="233.602" y1="308" x2="233.601" y2="127.457"><stop offset="0" stop-color="#007f65"/><stop offset="1" stop-color="#43ab38"/></linearGradient><path fill="url(#a)" d="M309.316 111.133l-44.438 45.045v48.7h-63.194v-47.787l-42.881-45.958h-50.539v46.873s91.16 170.256 95.569 169.111c4.418-1.144 0-80.727 0-80.727h56.774s-2.759 78.67 0 80.727c2.786 2.055 98.331-170.939 98.331-170.939l-.179-45.045h-49.443z"/><linearGradient id="b" gradientUnits="userSpaceOnUse" x1="231.866" y1="308" x2="231.866" y2="127.457"><stop offset="0" stop-color="#007f65"/><stop offset="1" stop-color="#43ab38"/></linearGradient><path fill="url(#b)" d="M259.445 110.11c0 15.214-12.349 27.57-27.575 27.57-15.231 0-27.583-12.356-27.583-27.57 0-15.218 12.352-27.575 27.583-27.575 15.226 0 27.575 12.358 27.575 27.575z"/></svg>