<?xml version="1.0" standalone="no"?>
<!DOCTYPE svg PUBLIC "-//W3C//DTD SVG 20010904//EN"
 "http://www.w3.org/TR/2001/REC-SVG-20010904/DTD/svg10.dtd">
<svg version="1.0" xmlns="http://www.w3.org/2000/svg"
 width="940.000000pt" height="940.000000pt" viewBox="0 0 940.000000 940.000000"
 preserveAspectRatio="xMidYMid meet">
<metadata>
Created by potrace 1.11, written by Peter Selinger 2001-2013
</metadata>
<g transform="translate(0.000000,940.000000) scale(0.100000,-0.100000)"
fill="#000000" stroke="none">
<path d="M4568 8884 c-2 -1 -26 -6 -53 -9 -28 -4 -53 -9 -56 -11 -3 -2 -20 -6
-37 -9 -66 -11 -283 -101 -302 -124 -3 -3 -13 -10 -22 -16 -78 -46 -185 -143
-254 -230 -21 -27 -41 -52 -44 -55 -3 -3 -10 -14 -16 -25 -6 -11 -25 -45 -42
-76 -46 -84 -92 -224 -108 -334 -5 -33 -5 -228 0 -251 2 -12 7 -39 11 -60 8
-52 24 -112 41 -151 8 -17 14 -37 14 -44 0 -7 7 -20 15 -29 9 -10 18 -27 20
-40 2 -13 11 -30 20 -40 8 -9 15 -22 15 -28 0 -7 5 -12 10 -12 6 0 10 -7 10
-15 0 -8 5 -15 10 -15 6 0 10 -5 10 -12 0 -12 113 -144 142 -166 9 -7 23 -18
30 -25 31 -30 97 -77 107 -77 6 0 11 -4 11 -9 0 -9 174 -101 192 -101 5 0 24
-6 41 -14 18 -8 46 -17 62 -21 17 -3 48 -10 70 -15 22 -4 58 -11 80 -15 48 -7
240 -8 275 0 14 3 41 7 60 10 40 6 74 13 78 15 3 3 11 5 55 14 20 5 37 11 37
15 0 4 9 7 19 8 21 2 124 51 181 86 107 67 129 83 130 95 0 6 4 12 10 12 16 0
103 91 158 165 29 39 57 76 63 83 5 6 7 12 3 12 -4 0 0 8 8 18 9 9 19 28 23
42 4 14 11 27 15 30 7 5 49 124 55 158 2 9 4 17 5 17 1 0 3 7 5 15 30 146 26
334 -9 465 -20 76 -30 104 -42 123 -8 12 -12 22 -9 22 16 0 -126 230 -147 238
-4 2 -8 10 -8 17 0 7 -4 15 -9 17 -5 2 -36 28 -68 58 -165 156 -340 243 -573
286 -37 6 -287 14 -292 8z"/>
<path d="M527 7963 c-4 -3 -33 -7 -64 -7 l-58 -2 -1 -799 0 -800 44 -85 c25
-47 70 -132 101 -188 31 -57 72 -134 91 -170 19 -37 37 -69 40 -72 3 -3 15
-25 28 -50 34 -65 132 -248 158 -295 12 -22 41 -75 63 -117 48 -92 64 -121 71
-128 3 -3 13 -21 22 -40 19 -38 84 -159 138 -255 18 -33 46 -82 60 -110 15
-27 36 -66 47 -85 11 -19 46 -84 79 -145 32 -60 67 -123 76 -140 10 -16 29
-52 43 -80 15 -27 34 -63 44 -80 10 -16 37 -66 61 -110 87 -161 182 -330 191
-340 5 -5 9 -17 9 -27 0 -10 5 -18 10 -18 6 0 10 -6 10 -14 0 -7 7 -19 15 -26
8 -7 13 -16 10 -20 -3 -5 -1 -11 4 -14 8 -5 33 -48 69 -121 8 -16 23 -42 34
-57 10 -14 18 -33 18 -42 0 -9 4 -16 9 -16 5 0 13 -10 17 -22 3 -12 28 -59 55
-104 27 -46 49 -85 49 -88 0 -3 18 -35 40 -71 22 -36 40 -67 40 -69 0 -2 25
-48 56 -102 31 -55 71 -126 89 -159 17 -33 41 -76 52 -95 45 -80 139 -247 154
-275 9 -16 29 -55 45 -85 15 -30 31 -57 34 -60 4 -3 13 -20 21 -38 8 -17 17
-32 21 -32 5 0 8 -4 8 -9 0 -4 52 -100 116 -212 64 -112 126 -222 139 -244 56
-99 224 -389 277 -478 32 -55 58 -103 58 -108 0 -5 5 -9 10 -9 6 0 10 -4 10
-10 0 -10 90 -161 223 -375 139 -223 215 -325 243 -325 14 0 39 75 29 89 -3 5
-1 11 5 13 5 1 11 36 12 75 2 40 5 73 8 73 14 0 11 1132 -2 1145 -3 3 -2 22 2
41 4 18 5 34 1 34 -3 0 -7 46 -7 103 -1 107 -9 335 -20 597 -4 85 -8 192 -8
237 -1 46 -3 83 -6 83 -3 0 -6 28 -6 63 -1 34 -2 91 -4 127 -1 36 -2 71 -1 78
1 9 203 12 976 12 773 0 975 -3 976 -12 2 -20 1 -48 -6 -273 -9 -269 -17 -581
-15 -617 0 -7 -3 -141 -7 -298 -9 -365 -9 -1222 0 -1365 14 -221 25 -242 80
-160 12 18 52 78 90 133 37 55 67 103 67 107 0 4 11 20 25 37 14 16 25 36 25
44 0 8 5 14 10 14 6 0 10 7 10 15 0 8 4 15 9 15 5 0 12 9 16 20 3 11 24 46 46
79 21 32 39 62 39 66 0 5 6 16 14 24 7 9 25 36 38 61 14 25 59 102 102 172 42
69 76 131 76 137 0 6 3 11 8 11 4 0 18 23 31 50 14 28 29 50 33 50 4 0 8 5 8
10 0 11 192 347 209 367 6 7 11 14 11 17 0 3 20 40 45 82 25 41 45 77 45 79 0
1 31 54 69 118 38 63 72 124 76 136 3 12 11 21 16 21 5 0 9 5 9 11 0 6 23 48
50 95 28 47 50 89 50 94 0 6 5 10 10 10 6 0 10 4 10 10 0 5 31 64 70 131 38
68 70 126 70 131 0 4 4 8 8 8 4 0 13 12 19 28 11 26 44 85 91 162 12 19 25 42
29 50 4 8 49 89 101 180 52 91 107 187 121 213 14 26 33 60 41 75 9 15 37 65
63 111 26 46 47 87 47 92 0 5 4 9 9 9 5 0 13 9 16 21 4 11 31 63 61 114 30 52
54 99 54 104 0 6 3 11 8 11 4 0 13 15 21 32 8 18 17 35 21 38 3 3 14 21 23 40
10 19 27 51 38 70 12 19 54 94 94 165 40 72 87 155 104 185 18 30 37 66 44 80
6 14 16 28 22 32 5 4 6 8 2 8 -4 0 -3 6 3 12 16 19 200 349 200 359 0 5 3 9 8
9 4 0 18 24 32 53 13 28 27 54 30 57 11 9 120 210 120 220 0 6 4 10 9 10 5 0
11 8 14 18 7 21 60 117 75 134 6 7 12 20 14 28 2 8 6 17 9 20 6 5 69 119 97
175 8 17 21 37 29 47 8 9 15 23 17 31 1 8 7 21 13 28 6 8 21 34 33 59 13 25
26 47 30 50 3 3 13 20 21 38 8 17 18 32 22 32 5 0 6 4 3 9 -3 5 0 14 7 19 7 6
19 27 27 47 7 19 17 35 22 35 4 0 8 4 8 10 0 5 17 40 38 77 l37 68 0 772 c0
425 -2 774 -5 774 -3 1 -48 3 -100 4 -53 1 -101 4 -107 8 -7 4 -14 4 -16 0 -4
-7 -162 -9 -162 -3 0 5 -46 6 -50 1 -5 -9 -218 -7 -232 2 -7 5 -13 4 -13 0 0
-8 -148 -8 -203 0 -15 2 -29 1 -32 -2 -5 -9 -238 -7 -252 2 -7 4 -14 4 -16 0
-6 -10 -149 -9 -164 0 -6 4 -14 4 -16 0 -6 -10 -118 -10 -135 1 -6 4 -12 3
-12 -1 0 -11 -163 -10 -171 1 -6 7 -418 -400 -721 -711 -38 -40 -71 -73 -73
-73 -2 0 -30 -28 -63 -62 -34 -35 -205 -208 -381 -386 l-320 -323 0 -831 c0
-456 -2 -833 -6 -836 -6 -7 -2142 -11 -2162 -4 -10 3 -13 177 -13 824 l0 819
-59 62 c-74 77 -134 141 -264 281 -56 60 -124 133 -152 161 -27 29 -95 101
-150 160 -55 59 -118 127 -140 150 -22 23 -94 99 -160 170 -66 70 -140 148
-163 174 -24 25 -71 75 -104 111 -34 36 -112 119 -174 185 l-114 121 -77 -1
c-43 -1 -84 3 -90 8 -8 5 -13 6 -13 1 0 -9 -146 -9 -203 -1 -15 2 -29 1 -32
-2 -5 -9 -238 -7 -252 2 -7 4 -14 4 -16 0 -6 -10 -149 -9 -164 0 -6 4 -14 4
-17 -1 -5 -9 -108 -8 -124 2 -6 3 -13 3 -15 -1 -4 -7 -162 -9 -162 -3 0 5 -46
6 -50 1 -5 -9 -218 -7 -232 2 -7 5 -13 5 -13 0 0 -9 -131 -10 -147 0 -5 4 -13
4 -16 0z"/>
</g>
</svg>
